# xmcd
#
# Track frame offsets:
#	150
#	14803
#	31107
#	43127
#	56091
#	73147
#	89388
#	102435
#	119445
#	135447
#	166458
#	187254
#	204789
#	224140
#	241190
#	258371
#	274456
#	296827
#	308916
#
# Disc length: 4264 seconds
#
# Revision: 0
# Processed by: cddbd v1.5.2PL0 Copyright (c) Steve Scherf et al.
# Submitted via: audiograbber 1.83.01
#
DISCID=3010a613
DTITLE=Various Artist - De Zwarte Lijst vol2
DYEAR=2013
DGENRE=Soul
TTITLE0= Alain Clark - This Ain't Gonna Work
TTITLE1= Nina Simone - My Baby Just Cares For Me
TTITLE2= Otis Redding - (Sittin' On) The Dock Of The Bay
TTITLE3= Fontella Bass - Rescue Me
TTITLE4= New Cool Collective - Do Anything
TTITLE5= Brand New Heavies - Dream On Dreamer
TTITLE6= Dionne Warwick - Walk On By
TTITLE7= Ashford and Simpson - Solid
TTITLE8= Bruut! - Bounce
TTITLE9= Barry White - It's Ecstasy When You Lay Down Next To Me
TTITLE10= Sade - The Sweetest Taboo
TTITLE11= Caro Emerald - Back It Up
TTITLE12= The Robert Cray Band - Right Next Door (Because Of Me)
TTITLE13= Bettye Swann - Then You Can Tell Me Goodbye
TTITLE14= Loleatta Holloway - Love Sensation
TTITLE15= The Very Next - Anna Mae
TTITLE16= Melody Gardot - Who Will Comfort Me
TTITLE17= Linda Lyndell - What A Man
TTITLE18= Peggy Lee - Why Don't You Do Right
EXTD=disc 3/3
EXTT0=
EXTT1=
EXTT2=
EXTT3=
EXTT4=
EXTT5=
EXTT6=
EXTT7=
EXTT8=
EXTT9=
EXTT10=
EXTT11=
EXTT12=
EXTT13=
EXTT14=
EXTT15=
EXTT16=
EXTT17=
EXTT18=
PLAYORDER=
